Patient4_TMGait_0pt3_02_right_21_EMG.mot
version=1
nRows=23
nColumns=33
inDegrees=no
endheader
time	1LAddLong	2LGlutMax	3LGlutMed	4LIliopsoas	5LSemiMemb	6LBicFemLong	7LRecFem	8LVastMed	9LVastLat	10LGasMed	11LTibAnt	12lTibPost	13LPeroneusLong	14LSol	15LExtDigLong	16LFlexDigLong	17RAddLong	18RGlutMax	19RGlutMed	20RIliopsoas	21RSemiMemb	22RBicFemLong	23RRecFem	24RVastMed	25RVastLat	26RGasMed	27RTibAnt	28RTibPost	29RPeroneusLong	30RSol	31RExtDigLong	32RFlexDigLong
42.233	0.001984	0.18539	-0.056458	0.005493	0.008698	0.006561	0.15366	0.018921	-0.50003	0.007324	-0.01709	-0.000916	0.045776	0.10925	0.033875	0.001068	0.029297	0.031586	-0.43213	0.050049	0.067291	-0.030518	0.27344	-0.054169	-0.030518	0.001373	-0.20126	-0.007477	0.009918	0.042725	-0.004578	0.004578
42.234	0.002289	0.15793	-0.14542	-0.003815	0.013123	0.048218	0.070801	0.018311	-0.48859	0.008087	-0.027008	0.012054	-0.003357	0.088959	0.057373	0	0.075226	0.028229	-0.4245	-0.033569	0.067596	-0.035553	0.31174	-0.034637	-0.007629	-0.010071	0.064697	-0.00473	-0.14114	0.028992	-0.00351	0.010529
42.235	0.013885	0.13062	-0.099182	-0.00412	0.002136	0.059052	-0.2211	0.019073	-0.41031	0.040588	0.014038	0.006866	0.21316	0.18127	0.037842	0.002136	0.092468	-0.032959	-0.16815	-0.13184	0.069733	-0.03891	0.27664	-0.032196	0.017853	-0.00824	0.19806	-0.009308	-0.24506	0.030518	-0.005188	0.010376
42.236	0.01358	0.1387	-0.11261	-0.006409	0.00412	0.049744	-0.34027	-0.010376	-0.15457	0.054016	0.015411	0.008698	0.38818	0.12451	-0.065002	-0.013428	0.066986	-0.062866	-0.15381	-0.095062	0.071106	-0.025177	0.2121	0.002289	0.007629	-0.014191	0.23331	-0.011292	-0.20599	-0.003662	-0.002289	0.014343
42.237	0.013275	0.14893	0.2298	-0.02594	0.010223	0.081024	-0.31937	-0.010986	0.1001	0.044403	0.002594	0.007172	-0.49942	0.036926	-0.093231	0.006866	0.001068	-0.096588	-0.40298	-0.19104	0.055084	-0.028229	0.14862	-0.025024	0.006256	-0.006866	0.39337	-0.010529	-0.051117	0.030518	-0.002289	0.000458
42.238	0.008087	0.20584	0.24979	-0.006714	0.001221	0.13504	-0.18707	-0.016174	0.25146	0.006714	-0.009308	0.01236	-0.32913	0.084076	-0.10407	0.004425	-0.06546	-0.072327	-0.54016	-0.18707	0.046692	-0.041199	0.080261	-0.038757	-0.007019	-0.001373	0.26138	-0.007477	0.068665	-0.020294	-0.00885	0.008545
42.239	0.003204	0.23239	0.30106	0.002136	0.011444	0.059357	-0.088196	-0.027771	0.17166	-0.033569	-0.023193	0.005341	-0.52597	0.082703	-0.022888	-0.005341	-0.042877	-0.11917	-0.54779	-0.25375	0.039368	-0.037537	-0.29343	-0.09201	-0.007782	0.000763	-0.4541	-0.007324	0.071564	-0.12344	-0.002899	0.003662
42.24	-0.002136	0.23407	0.17853	0	0.007019	0.01709	-0.066071	0.001373	-0.054932	0.008087	-0.022583	0.007172	0.22598	-0.072327	0.01297	0.002441	0.019226	-0.050507	-0.52399	-0.14725	0.040436	-0.033569	-0.3891	-0.12329	-0.007935	-0.001221	-0.29923	-0.007477	-0.006561	-0.089417	-0.002747	0.00824
42.241	-0.003204	0.19516	0.30106	-0.007324	0.000153	0.090332	-0.074005	-0.01709	-0.15778	0.01236	-0.015411	0.00946	-0.037231	-0.099335	0.034485	0.003204	0.061951	-0.10223	-0.35934	0.094604	0.026398	-0.036316	-0.28214	-0.096893	-0.030365	-0.007629	-0.39505	-0.011902	-0.068207	-0.03479	-0.004272	0.008087
42.242	-0.009003	0.1471	0.19913	0.023041	0.002747	0.13412	-0.084381	-0.013275	-0.085449	-0.007629	-0.021515	0.008392	0.25711	-0.00473	0.000763	0.010529	0.081635	-0.09201	-0.551	0.26337	0.034943	-0.038757	-0.11215	-0.10117	-0.01297	0	-0.49088	-0.005188	0.049591	-0.049286	-0.003357	0.011597
42.243	-0.00946	0.14145	0.12665	0.021515	0.005798	0.14832	-0.16083	-0.014343	-0.10513	0.022888	-0.050354	0.007935	-0.043182	0.009766	0.008698	-0.005798	0.090637	-0.16464	-0.56168	0.26352	0.02655	-0.02182	0.031281	-0.050507	-0.019684	-0.002136	-0.31158	-0.007782	0.037994	-0.029907	-0.005341	0.010223
42.244	-0.013123	0.19363	-0.018921	0.011597	0.004578	0.025482	-0.16739	-0.014191	0.027466	0.027161	-0.015564	0.003662	0.31174	0.020599	0.10651	-0.013123	0.10178	-0.15656	-0.77286	0.26993	0.038452	-0.019531	0.1387	-0.065918	-0.007477	-0.00946	-0.066681	-0.009766	-0.06897	0.013275	-0.001221	0.005493
42.245	-0.00473	0.20279	-0.008545	-0.026855	0.00885	-0.15228	-0.090485	0.011292	0.23438	0.030518	-0.002136	0.005798	0.25909	-0.10483	0.11963	0.003357	0.08316	-0.096283	-0.45105	0.14191	0.072021	0.003662	0.23468	-0.040436	-0.015411	-0.021362	0.019379	-0.00351	-0.10559	0.04364	-0.004425	0.006714
42.246	0.001984	0.18387	0.012207	0.037842	0.007782	-0.029449	-0.12085	0.045319	0.28748	0.022736	0.042572	0.003204	-0.13611	-0.06897	0.12344	0.000763	0.054169	-0.095673	-0.54214	0.036316	0.073395	-0.002899	0.29098	-0.000458	0.002594	-0.009155	0.12909	-0.007019	-0.10941	0.00885	-0.00412	0.012054
42.247	0.004883	0.053711	-0.10437	0.04364	0.017395	0.087891	-0.036316	0.031433	0.21805	-0.00061	0.011139	0.011444	-0.1564	-0.032654	0.072021	-0.000458	0.003662	-0.050507	-0.23438	-0.004883	0.075684	0.024261	0.34653	0.092163	0.01709	-0.002136	-0.070801	-0.010681	-0.045471	0.038147	0.001526	0.00885
42.248	-0.005035	-0.064087	-0.32669	0.029602	0.010071	0.17105	0.11108	0.035706	-0.13794	0.011749	0.003204	0.010681	-0.021057	-0.002441	-0.027313	0.002136	-0.044708	-0.03479	0.32913	-0.08316	0.079956	0.028839	0.3038	0.10193	0.059204	-0.011597	-0.19348	-0.007477	-0.11047	0.037842	-0.004578	0.006714
42.249	-0.006256	-0.08255	-0.38895	0.009003	0.002594	0.16022	0.1471	0.025177	-0.32089	0.037994	0.017853	0.010529	-0.04425	0.06073	0.008392	0.002747	-0.082703	-0.066528	-0.26337	-0.15045	0.074463	0.033112	0.15335	0.060272	0.03418	-0.013428	0.18967	-0.00351	-0.26169	-0.020599	-0.005798	-0.007935
42.25	-0.003662	-0.10544	-0.31815	0.007629	0.011749	0.091858	0.13336	-0.00473	-0.32364	0.040283	0.025482	0.00885	-0.12711	0.11414	0.002289	-0.007019	-0.090942	-0.052948	-0.13458	-0.12009	0.074005	0.029144	0.078583	0.048981	0.041656	-0.015106	0.30304	-0.000458	-0.22675	-0.094604	-0.003357	-0.001068
42.251	-0.001068	-0.11963	-0.12375	0.009308	0.014038	-0.20538	0.13794	-0.000763	-0.13672	0.039825	0.007935	0.007782	0.019073	0.0177	-0.080872	-0.011749	-0.098877	-0.020905	-0.12039	-0.051422	0.057373	0.032959	0.079041	0.013428	0.024872	-0.003204	0.37888	-0.001526	-0.10223	-0.16647	-0.00885	0.010071
42.252	-0.008698	-0.076599	-0.17838	0.000763	0.014648	-0.36529	0.11459	0.040283	-0.059052	0.034027	-0.00412	0.006714	-0.17746	-0.086365	-0.004578	-0.015564	-0.098724	-0.014343	-0.42908	-0.004425	0.050354	0.034332	0.10239	0.045776	0.010376	0.00473	0.089569	-0.001221	-0.003662	-0.22217	-0.005646	0.017548
42.253	-0.001984	-0.063629	0.005341	-0.019531	0.012817	-0.2829	-0.060272	0.042419	-0.058746	0.011292	-0.009003	0.00946	0.085449	-0.089264	0.016327	-0.00412	-0.062714	0.065308	-0.31189	-0.085449	0.054016	0.033417	0.10941	-0.016327	-0.010071	0.005341	-0.001068	-0.001831	0.015564	-0.20538	-0.006714	0.009766
42.254	-0.011444	-0.078125	0.21637	-0.010681	0.007019	-0.12451	-0.090027	0.021362	0.004272	0.005798	-0.022125	0.006866	0.47348	0.037231	0.031128	-0.003052	-0.033264	0.034027	-0.33508	-0.04837	0.041504	0.028687	0.054169	-0.028076	-0.002289	-0.002136	0.54001	-0.007477	-0.15976	-0.13168	-0.002747	0.004272
42.255	-0.003204	0.033264	0.038757	0.012665	0.032501	-0.045319	-0.068817	-0.002136	0.071106	0.026398	-0.009003	0.010529	0.15335	0.064087	0.052643	0.001373	-0.019531	-0.005646	-0.48355	-0.031128	0.030518	0.016174	0.033875	-0.034332	-0.018311	-0.001984	0.72342	-0.000458	-0.18463	-0.042725	-0.004272	-0.002747
